<?xml version="1.0" standalone="no"?>
<!DOCTYPE svg PUBLIC "-//W3C//DTD SVG 20010904//EN"
 "http://www.w3.org/TR/2001/REC-SVG-20010904/DTD/svg10.dtd">
<svg version="1.0" xmlns="http://www.w3.org/2000/svg"
 width="680.000000pt" height="680.000000pt" viewBox="0 0 680.000000 680.000000"
 preserveAspectRatio="xMidYMid meet">
<metadata>
Created by potrace 1.14, written by Peter Selinger 2001-2017
</metadata>
<g transform="translate(0.000000,680.000000) scale(0.100000,-0.100000)"
fill="#000000" stroke="none">
<path d="M1419 6566 c-3 -3 -22 -8 -43 -11 -55 -9 -139 -40 -203 -75 -211
-116 -356 -342 -368 -573 -3 -43 -7 -82 -10 -88 -4 -5 -3 -9 2 -9 4 0 9 -18
10 -39 4 -89 69 -268 122 -334 33 -42 106 -122 115 -126 4 -2 16 -12 24 -22 9
-11 22 -19 29 -19 7 0 13 -4 13 -8 0 -16 169 -97 225 -108 11 -2 31 -7 45 -10
14 -4 73 -8 131 -9 113 -3 208 15 299 57 25 12 47 22 50 22 23 6 140 97 188
146 39 41 112 149 112 167 0 6 3 13 8 15 8 3 50 120 57 158 19 112 19 162 0
287 -30 203 -185 407 -380 503 -110 54 -205 77 -323 79 -54 1 -100 0 -103 -3z"/>
<path d="M4124 6309 c-7 -12 -6 -198 2 -211 3 -4 0 -8 -6 -8 -7 0 -9 -8 -5
-20 3 -10 6 -43 5 -72 0 -29 0 -62 0 -73 1 -11 1 -24 1 -30 0 -5 0 -44 -1 -85
0 -41 0 -104 -1 -140 0 -36 -1 -72 0 -80 1 -24 1 -140 0 -148 -1 -4 -1 -22 0
-39 l1 -33 942 3 942 2 -2 63 c-1 34 -4 67 -7 72 -4 6 -2 10 3 10 6 0 7 14 2
35 -4 20 -4 38 1 41 5 3 5 13 -1 23 -5 10 -7 21 -4 24 8 7 7 173 0 186 -4 5
-2 12 2 15 5 3 6 25 3 48 -4 24 -4 59 -1 79 4 20 4 44 0 53 -3 9 -3 44 0 77 3
33 3 64 -1 70 -3 6 -4 25 0 43 3 17 5 46 3 63 l-3 33 -936 2 c-514 2 -937 0
-939 -3z"/>
<path d="M4 3518 c3 -95 8 -186 10 -203 2 -16 7 -59 11 -95 4 -36 9 -74 11
-85 2 -11 7 -38 10 -60 3 -22 7 -49 9 -60 5 -36 57 -260 62 -268 2 -4 6 -17 9
-30 8 -44 86 -278 115 -342 4 -11 26 -60 47 -110 38 -86 103 -223 122 -255 5
-8 37 -62 71 -120 91 -155 237 -360 333 -468 103 -115 139 -154 211 -223 118
-114 152 -144 250 -221 33 -26 67 -54 76 -63 9 -8 21 -15 27 -15 5 0 12 -4 14
-8 7 -18 250 -175 391 -253 57 -31 223 -111 292 -139 44 -18 94 -39 110 -46
17 -7 82 -29 145 -49 63 -20 122 -39 130 -42 8 -3 22 -7 31 -9 8 -2 42 -11 75
-19 32 -9 70 -18 84 -21 14 -2 54 -11 90 -18 97 -21 191 -35 360 -53 72 -8
565 -8 610 0 19 3 62 9 95 12 54 6 77 9 150 20 34 6 77 14 155 32 41 9 80 17
85 18 6 1 15 3 20 5 6 1 15 3 20 4 81 14 378 115 493 167 35 16 66 29 68 29 7
0 196 95 262 132 88 48 268 161 307 191 6 4 48 37 95 73 112 85 112 86 205
168 100 89 195 185 277 279 35 39 66 74 69 77 3 3 23 28 44 55 20 28 40 52 44
55 3 3 20 25 36 50 17 24 38 52 48 62 9 10 17 22 17 27 0 5 7 16 15 24 8 8 22
28 32 45 10 17 47 79 82 139 36 59 85 149 109 198 24 50 48 97 53 105 5 8 12
22 15 30 3 8 16 40 29 70 23 53 105 274 109 295 1 6 10 37 20 70 10 33 19 67
21 75 2 8 10 42 18 75 13 50 36 159 51 240 7 40 16 101 22 160 3 33 8 69 11
80 2 11 6 102 10 203 l5 182 -481 0 c-378 0 -481 -3 -481 -12 -1 -7 -3 -62 -5
-123 -4 -120 -11 -219 -18 -250 -2 -11 -7 -41 -11 -66 -4 -25 -9 -59 -13 -75
-3 -16 -6 -36 -7 -44 -1 -9 -5 -21 -10 -28 -4 -6 -5 -12 -2 -12 3 0 -1 -18 -9
-40 -8 -22 -12 -40 -9 -40 2 0 -2 -16 -10 -35 -8 -19 -13 -35 -11 -35 5 0 -35
-115 -75 -216 -34 -85 -101 -223 -145 -299 -34 -58 -174 -268 -184 -275 -4 -3
-14 -16 -23 -29 -77 -112 -341 -364 -484 -462 -27 -18 -51 -35 -54 -38 -3 -3
-14 -11 -25 -18 -130 -79 -174 -103 -183 -103 -7 0 -12 -3 -12 -7 0 -9 -16
-17 -145 -75 -210 -94 -439 -162 -655 -193 -205 -29 -564 -27 -735 6 -27 5
-66 12 -85 15 -118 19 -376 99 -500 156 -25 11 -69 31 -98 45 -103 47 -331
185 -340 206 -2 4 -8 7 -14 7 -13 0 -195 151 -274 227 -65 62 -138 142 -194
212 -19 24 -40 49 -46 55 -21 22 -153 222 -189 286 -97 175 -185 390 -230 565
-5 17 -9 35 -11 40 -3 11 -30 134 -39 180 -3 17 -8 50 -10 75 -3 25 -7 56 -10
70 -3 14 -8 93 -10 175 l-5 150 -481 3 -482 2 7 -172z"/>
</g>
</svg>
