<?xml version="1.0" encoding="utf-8"?>
<!-- Generator: Adobe Illustrator 27.9.0, SVG Export Plug-In . SVG Version: 6.00 Build 0)  -->
<svg version="1.1" xmlns="http://www.w3.org/2000/svg" xmlns:xlink="http://www.w3.org/1999/xlink" x="0px" y="0px"
	 viewBox="0 0 512 512" style="enable-background:new 0 0 512 512;" xml:space="preserve">
<style type="text/css">
	.st0{display:none;}
	.st1{display:inline;fill:none;stroke:#0000FF;stroke-width:0.5;stroke-miterlimit:10;}
	.st2{display:inline;fill:none;stroke:#FF0000;stroke-width:0.5;stroke-miterlimit:10;}
	.st3{fill:none;}
	.st4{fill:#D81921;}
	.st5{filter:url(#Adobe_OpacityMaskFilter);}
	.st6{clip-path:url(#SVGID_00000000219826672800574780000017072284987166142873_);}
	.st7{clip-path:url(#SVGID_00000168799622380051233040000009423506328544142739_);}

		.st8{clip-path:url(#SVGID_00000053547518316702011310000004216549267050569904_);fill:url(#SVGID_00000070076999592547377690000018098708628776566160_);}

		.st9{clip-path:url(#SVGID_00000000219826672800574780000017072284987166142873_);mask:url(#SVGID_00000078021197356990705700000012461443086319936703_);fill:url(#SVGID_00000016070250099392644030000004511075061670426257_);}
	.st10{opacity:0.62;fill:url(#SVGID_00000009573213879609683080000002786100527245701504_);enable-background:new    ;}
</style>
<g id="Layer_1" class="st0">
	<path class="st1" d="M392.8,512.1H118.7C53.1,512.1,0,458.9,0,393.4V119.3C0,53.8,53.1,0.6,118.7,0.6h274.1
		c65.5,0,118.7,53.1,118.7,118.7v274.1C511.4,458.9,458.3,512.1,392.8,512.1z"/>
	<circle class="st2" cx="255.5" cy="256.2" r="222"/>
	<circle class="st2" cx="255.2" cy="256.5" r="134.6"/>
	<circle class="st2" cx="255.2" cy="256.5" r="95.1"/>
	<line class="st2" x1="0" y1="34.2" x2="511.6" y2="34.2"/>
	<line class="st2" x1="0" y1="161.4" x2="511.4" y2="161.4"/>
	<line class="st2" x1="0" y1="256.1" x2="511.4" y2="256.1"/>
	<line class="st2" x1="0" y1="351.6" x2="511.4" y2="351.6"/>
	<line class="st2" x1="0" y1="478.2" x2="511.6" y2="478.2"/>
	<line class="st2" x1="33.5" y1="0.6" x2="33.5" y2="512.1"/>
	<line class="st2" x1="160.1" y1="0.6" x2="160.1" y2="512.1"/>
	<line class="st2" x1="255.8" y1="0.6" x2="255.8" y2="512.1"/>
	<line class="st2" x1="350.3" y1="0.6" x2="350.3" y2="512.1"/>
	<line class="st2" x1="477.5" y1="0.6" x2="477.5" y2="512.1"/>
	<line class="st2" x1="0" y1="512.1" x2="512.1" y2="0"/>
	<line class="st2" x1="0" y1="0.6" x2="511.8" y2="512.5"/>
</g>
<g id="Layer_3">
</g>
<g id="Layer_2">
</g>
<g id="Guide">
	<rect class="st3" width="512" height="512"/>
	<rect class="st3" width="512" height="512"/>
	<g>
		<path class="st4" d="M325.4,416.5c31.4-0.2,62.8-0.4,94.2-0.6c-32-118.4-63.9-236.9-95.9-355.3H183.2
			c-17.5,66.1-35,132.3-52.4,198.4c-12.7-0.1-26,0-39.5,0.1c-5.7,22.4-8,33.6-15.5,64.3c9.6-0.2,21-0.1,38.1-0.2
			c-8.2,30.9-16.3,61.8-24.5,92.7c30.9,0.1,61.9,0.2,92.8,0.2c7.8-29.5,15.7-59.1,23.5-88.7c14.1,3.3,19.7,8.3,26.1,14.3
			c1.9,1.8,3.3,3.4,4.3,4.5c17.4-17.3,33.8-33.2,44.5-46c-5.6-5.7-14.4-13.7-26.7-20.9c-10.5-6.1-18.1-10.3-31.8-13.5
			c10.6-39.9,21.2-79.7,31.7-119.6C277.6,236.3,301.5,326.4,325.4,416.5"/>
		<g>
			<g>
				<g>
					<defs>
						<path id="SVGID_1_" d="M131.5,259.2l30-113.4l22.3-84.5h139.4l50.9,188.5l44.6,165.3h-0.4l-92.3,0.7l-34-128.1l-37.6-141.6
							l-0.7-2.7l-0.7,2.7l-24.8,93.4l-7,26.2l-0.2,0.7l0.8,0.2c13.6,3.1,20.8,7.1,31.6,13.4c9.4,5.5,18.2,12.3,26,20.3
							c-9,10.7-22,23.7-35.9,37.4c-2.5,2.5-5,5-7.6,7.5c-1.2-1.4-2.5-2.7-3.8-3.9c-6.1-5.7-11.9-11.1-26.4-14.5l-0.7-0.2l-0.2,0.7
							l-10.1,38l-13.3,50.1l-91.3-0.2l12.9-48.6l11.4-43.2l0.2-0.9h-1c-6.4,0-12.1,0-17.1,0c-7.9,0-14.3,0-20,0.1
							c3.4-13.9,5.7-23.7,7.8-32.5c2.4-10,4.4-18.7,7.3-30.3h5.2c7.9,0,15.8-0.1,23.5-0.1c3.5,0,6.9,0,10.2,0h0.6L131.5,259.2z
							 M183.2,60.6c-17.5,66.1-35,132.3-52.4,198.4c-3.4,0-6.8,0-10.2,0c-9.5,0-19.4,0-29.3,0.1c-5.7,22.4-8,33.6-15.5,64.3
							c9.6-0.2,21-0.1,38.1-0.2c-8.2,30.9-16.3,61.8-24.5,92.7c30.9,0.1,61.9,0.2,92.8,0.2c7.8-29.6,15.7-59.1,23.5-88.7
							c14.1,3.3,19.7,8.3,26.1,14.3c1.9,1.8,3.3,3.4,4.3,4.5c17.4-17.3,33.8-33.2,44.5-46c-5.6-5.7-14.4-13.7-26.7-20.9
							c-10.5-6.1-18.1-10.3-31.8-13.5c10.6-39.9,21.2-79.7,31.8-119.6c23.9,90.1,47.8,180.1,71.7,270.2c31.4-0.2,62.8-0.4,94.2-0.6
							c-32-118.4-63.9-236.9-95.9-355.3L183.2,60.6L183.2,60.6z"/>
					</defs>
					<clipPath id="SVGID_00000085964091727830352280000011665574448235985080_">
						<use xlink:href="#SVGID_1_"  style="overflow:visible;"/>
					</clipPath>
					<defs>
						<filter id="Adobe_OpacityMaskFilter" filterUnits="userSpaceOnUse" x="75.7" y="60.6" width="343.9" height="355.9">
							<feColorMatrix  type="matrix" values="1 0 0 0 0  0 1 0 0 0  0 0 1 0 0  0 0 0 1 0"/>
						</filter>
					</defs>

						<mask maskUnits="userSpaceOnUse" x="75.7" y="60.6" width="343.9" height="355.9" id="SVGID_00000078021197356990705700000012461443086319936703_">
						<g class="st5">
							<g>
								<g>
									<defs>
										<path id="SVGID_00000008139225801269801170000009434516680886965122_" d="M131.5,259.2l30-113.4l22.3-84.5h139.4
											l50.9,188.5l44.6,165.3h-0.4l-92.3,0.7l-34-128.1l-37.6-141.6l-0.7-2.7l-0.7,2.7l-24.8,93.4l-7,26.2l-0.2,0.7l0.8,0.2
											c13.6,3.1,20.8,7.1,31.6,13.4c9.4,5.5,18.2,12.3,26,20.3c-9,10.7-22,23.7-35.9,37.4c-2.5,2.5-5,5-7.6,7.5
											c-1.2-1.4-2.5-2.7-3.8-3.9c-6.1-5.7-11.9-11.1-26.4-14.5l-0.7-0.2l-0.2,0.7l-10.1,38l-13.3,50.1l-91.3-0.2l12.9-48.6
											l11.4-43.2l0.2-0.9h-1c-6.4,0-12.1,0-17.1,0c-7.9,0-14.3,0-20,0.1c3.4-13.9,5.7-23.7,7.8-32.5c2.4-10,4.4-18.7,7.3-30.3
											h5.2c7.9,0,15.8-0.1,23.5-0.1c3.5,0,6.9,0,10.2,0h0.6L131.5,259.2z M183.2,60.6c-17.5,66.1-35,132.3-52.4,198.4
											c-3.4,0-6.8,0-10.2,0c-9.5,0-19.4,0-29.3,0.1c-5.7,22.4-8,33.6-15.5,64.3c9.6-0.2,21-0.1,38.1-0.2
											c-8.2,30.9-16.3,61.8-24.5,92.7c30.9,0.1,61.9,0.2,92.8,0.2c7.8-29.6,15.7-59.1,23.5-88.7c14.1,3.3,19.7,8.3,26.1,14.3
											c1.9,1.8,3.3,3.4,4.3,4.5c17.4-17.3,33.8-33.2,44.5-46c-5.6-5.7-14.4-13.7-26.7-20.9c-10.5-6.1-18.1-10.3-31.8-13.5
											c10.6-39.9,21.2-79.7,31.8-119.6c23.9,90.1,47.8,180.1,71.7,270.2c31.4-0.2,62.8-0.4,94.2-0.6
											c-32-118.4-63.9-236.9-95.9-355.3L183.2,60.6L183.2,60.6z"/>
									</defs>

										<clipPath id="SVGID_00000097500240807807549730000012514932754457900473_" style="clip-path:url(#SVGID_00000085964091727830352280000011665574448235985080_);">
										<use xlink:href="#SVGID_00000008139225801269801170000009434516680886965122_"  style="overflow:visible;"/>
									</clipPath>
								</g>
								<g>
									<defs>
										<path id="SVGID_00000082369915342758007870000009580611157173084808_" d="M131.5,259.2l30-113.4l22.3-84.5h139.4
											l50.9,188.5l44.6,165.3h-0.4l-92.3,0.7l-34-128.1l-37.6-141.6l-0.7-2.7l-0.7,2.7l-24.8,93.4l-7,26.2l-0.2,0.7l0.8,0.2
											c13.6,3.1,20.8,7.1,31.6,13.4c9.4,5.5,18.2,12.3,26,20.3c-9,10.7-22,23.7-35.9,37.4c-2.5,2.5-5,5-7.6,7.5
											c-1.2-1.4-2.5-2.7-3.8-3.9c-6.1-5.7-11.9-11.1-26.4-14.5l-0.7-0.2l-0.2,0.7l-10.1,38l-13.3,50.1l-91.3-0.2l12.9-48.6
											l11.4-43.2l0.2-0.9h-1c-6.4,0-12.1,0-17.1,0c-7.9,0-14.3,0-20,0.1c3.4-13.9,5.7-23.7,7.8-32.5c2.4-10,4.4-18.7,7.3-30.3
											h5.2c7.9,0,15.8-0.1,23.5-0.1c3.5,0,6.9,0,10.2,0h0.6L131.5,259.2z M183.2,60.6c-17.5,66.1-35,132.3-52.4,198.4
											c-3.4,0-6.8,0-10.2,0c-9.5,0-19.4,0-29.3,0.1c-5.7,22.4-8,33.6-15.5,64.3c9.6-0.2,21-0.1,38.1-0.2
											c-8.2,30.9-16.3,61.8-24.5,92.7c30.9,0.1,61.9,0.2,92.8,0.2c7.8-29.6,15.7-59.1,23.5-88.7c14.1,3.3,19.7,8.3,26.1,14.3
											c1.9,1.8,3.3,3.4,4.3,4.5c17.4-17.3,33.8-33.2,44.5-46c-5.6-5.7-14.4-13.7-26.7-20.9c-10.5-6.1-18.1-10.3-31.8-13.5
											c10.6-39.9,21.2-79.7,31.8-119.6c23.9,90.1,47.8,180.1,71.7,270.2c31.4-0.2,62.8-0.4,94.2-0.6
											c-32-118.4-63.9-236.9-95.9-355.3L183.2,60.6L183.2,60.6z"/>
									</defs>
									<defs>
										<path id="SVGID_00000016058625746438211170000018054969994799086777_" d="M131.5,259.2l30-113.4l22.3-84.5h139.4
											l50.9,188.5l44.6,165.3h-0.4l-92.3,0.7l-34-128.1l-37.6-141.6l-0.7-2.7l-0.7,2.7l-24.8,93.4l-7,26.2l-0.2,0.7l0.8,0.2
											c13.6,3.1,20.8,7.1,31.6,13.4c9.4,5.5,18.2,12.3,26,20.3c-9,10.7-22,23.7-35.9,37.4c-2.5,2.5-5,5-7.6,7.5
											c-1.2-1.4-2.5-2.7-3.8-3.9c-6.1-5.7-11.9-11.1-26.4-14.5l-0.7-0.2l-0.2,0.7l-10.1,38l-13.3,50.1l-91.3-0.2l12.9-48.6
											l11.4-43.2l0.2-0.9h-1c-6.4,0-12.1,0-17.1,0c-7.9,0-14.3,0-20,0.1c3.4-13.9,5.7-23.7,7.8-32.5c2.4-10,4.4-18.7,7.3-30.3
											h5.2c7.9,0,15.8-0.1,23.5-0.1c3.5,0,6.9,0,10.2,0h0.6L131.5,259.2z M183.2,60.6c-17.5,66.1-35,132.3-52.4,198.4
											c-3.4,0-6.8,0-10.2,0c-9.5,0-19.4,0-29.3,0.1c-5.7,22.4-8,33.6-15.5,64.3c9.6-0.2,21-0.1,38.1-0.2
											c-8.2,30.9-16.3,61.8-24.5,92.7c30.9,0.1,61.9,0.2,92.8,0.2c7.8-29.6,15.7-59.1,23.5-88.7c14.1,3.3,19.7,8.3,26.1,14.3
											c1.9,1.8,3.3,3.4,4.3,4.5c17.4-17.3,33.8-33.2,44.5-46c-5.6-5.7-14.4-13.7-26.7-20.9c-10.5-6.1-18.1-10.3-31.8-13.5
											c10.6-39.9,21.2-79.7,31.8-119.6c23.9,90.1,47.8,180.1,71.7,270.2c31.4-0.2,62.8-0.4,94.2-0.6
											c-32-118.4-63.9-236.9-95.9-355.3L183.2,60.6L183.2,60.6z"/>
									</defs>

										<clipPath id="SVGID_00000066510087240632286870000017750202056684241794_" style="clip-path:url(#SVGID_00000085964091727830352280000011665574448235985080_);">
										<use xlink:href="#SVGID_00000082369915342758007870000009580611157173084808_"  style="overflow:visible;"/>
									</clipPath>

										<clipPath id="SVGID_00000082344872639181210550000008637951807016056713_" style="clip-path:url(#SVGID_00000066510087240632286870000017750202056684241794_);">
										<use xlink:href="#SVGID_00000016058625746438211170000018054969994799086777_"  style="overflow:visible;"/>
									</clipPath>

										<linearGradient id="SVGID_00000130624124240811961980000009659999329203946373_" gradientUnits="userSpaceOnUse" x1="3862.4978" y1="3614.1594" x2="3863.9863" y2="3614.1594" gradientTransform="matrix(231.033 0 0 -231.033 -892288.75 835228.6875)">
										<stop  offset="0" style="stop-color:#4D4D4D"/>
										<stop  offset="0.1306" style="stop-color:#4D4D4D"/>
										<stop  offset="0.3032" style="stop-color:#535353"/>
										<stop  offset="0.5401" style="stop-color:#646464"/>
										<stop  offset="0.8131" style="stop-color:#818181"/>
										<stop  offset="0.9981" style="stop-color:#999999"/>
										<stop  offset="1" style="stop-color:#999999"/>
									</linearGradient>

										<rect x="75.7" y="60.6" style="clip-path:url(#SVGID_00000082344872639181210550000008637951807016056713_);fill:url(#SVGID_00000130624124240811961980000009659999329203946373_);" width="343.9" height="355.9"/>
								</g>
							</g>
						</g>
					</mask>

						<linearGradient id="SVGID_00000011029221816868317620000000348113919471807421_" gradientUnits="userSpaceOnUse" x1="3862.4978" y1="3614.1594" x2="3863.9863" y2="3614.1594" gradientTransform="matrix(231.033 0 0 -231.033 -892288.75 835228.6875)">
						<stop  offset="0" style="stop-color:#231F20"/>
						<stop  offset="0.1306" style="stop-color:#231F20"/>
						<stop  offset="0.9981" style="stop-color:#231F20"/>
						<stop  offset="1" style="stop-color:#231F20"/>
					</linearGradient>

						<rect x="75.7" y="60.6" style="clip-path:url(#SVGID_00000085964091727830352280000011665574448235985080_);mask:url(#SVGID_00000078021197356990705700000012461443086319936703_);fill:url(#SVGID_00000011029221816868317620000000348113919471807421_);" width="343.9" height="355.9"/>
				</g>
			</g>
		</g>

			<linearGradient id="SVGID_00000074427913540692439760000009251137195289288372_" gradientUnits="userSpaceOnUse" x1="126.3827" y1="351.8827" x2="278.1817" y2="269.0433" gradientTransform="matrix(1 0 0 1 0 2)">
			<stop  offset="0.1716" style="stop-color:#000000;stop-opacity:0"/>
			<stop  offset="0.8041" style="stop-color:#000000"/>
		</linearGradient>

			<polygon style="opacity:0.62;fill:url(#SVGID_00000074427913540692439760000009251137195289288372_);enable-background:new    ;" points="
			103.2,371.1 145.5,404.4 206.2,326.8 122.2,295.1 		"/>
		<path class="st4" d="M221,266.4c-8-1.8-17.3-3.8-31.4-5.1c-10.1-0.9-23.3-1.7-38-2c-6.7-0.2-13.2,0.5-20.4,0.4
			c-5.7,21.4-10.9,41.4-16.5,62.8c19-0.4,39.2,0,60.7,1.5c10.2,0.7,20.1,1.6,29.7,2.7C210.6,306.1,215.6,286.9,221,266.4"/>
	</g>
</g>
</svg>
