<?xml version="1.0" encoding="utf-8"?>
<!-- Generator: Adobe Illustrator 27.9.0, SVG Export Plug-In . SVG Version: 6.00 Build 0)  -->
<svg version="1.1" id="Layer_1" xmlns="http://www.w3.org/2000/svg" xmlns:xlink="http://www.w3.org/1999/xlink" x="0px" y="0px"
	 viewBox="0 0 1920 1080" style="enable-background:new 0 0 1920 1080;" xml:space="preserve">
<style type="text/css">
	.st0{fill-rule:evenodd;clip-rule:evenodd;fill:#C7C8CA;}
	.st1{fill-rule:evenodd;clip-rule:evenodd;fill:#ED3237;}
</style>
<g>
	<path class="st0" d="M175.49,896.91c-1.52-2.12-3.03-4.26-4.55-6.38c-57.96-87.86-75.56-174.78-63.5-256.43l220.48,26.21
		c2.81,55.45,22.97,112.81,61.68,166.1c-21.25,6.06-41.52,12.2-61.09,18.4C274.43,861.94,225.6,879.47,175.49,896.91L175.49,896.91z
		"/>
	<path class="st1" d="M991.56,185.32c55.18-1.57,111.68,0.84,168.54,7.48c82.93,9.7,166.65,28.41,248.26,56.98
		c50.62,17.72,95.35,37.36,133.37,59.2c-49.23-43.69-119.77-79.78-207.08-107.88c-102.06-32.85-222.13-52.92-346.6-57.32
		L991.56,185.32L991.56,185.32z"/>
	<path class="st1" d="M693.23,236.94c78.37-26.76,165.59-43.75,257.16-49.7l-7.04-44.38c-94.58-0.48-190.75,8.15-282.63,27.15
		c-3.81,0.79-7.63,1.61-11.45,2.45L693.23,236.94L693.23,236.94z"/>
	<path class="st0" d="M446.58,387.19C501.89,331.13,573.52,283.83,655,251.07l-52.14-66.96c-98.41,27.64-194.14,73.16-275,131.59
		L446.58,387.19z"/>
	<path class="st0" d="M328.76,619.91c6.43-71.81,39.16-141.7,90.85-203.15L287.5,346.98c-80.39,66.9-141.48,147.52-168.45,235.86
		L328.76,619.91L328.76,619.91z"/>
	<path class="st0" d="M1071.17,488.84c-10.5,1.15-21,2.31-31.51,3.45c-9.47,1.03-14.9,1.57-24.21,5.57
		c-3.47,1.5-6.75,3.25-9.76,5.22c-5.63,3.66-7.36,5.62-11.25,10.81c-4.04,5.38-8.03,10.71-11.82,15.76
		c-4.85,6.47-1.42,1.97-6.22,8.37c-0.7,0.93-1.4,1.87-2.11,2.8c-7.25,8.06-17.78,14.37-30.18,17.46
		c-14.06,2.12-28.11,4.24-42.16,6.37c-2,0.3-4.01,0.6-6,0.91c-5.66,0.85-11.79,2.58-17.41,1c-8.8-2.46-15.09-10.6-14.74-20.01
		c0.07-1.82,0.38-3.58,0.91-5.23c1.49-4.69,6.87-10.79,9.8-14.66c1.52-2,3.02-4,4.54-6c15.92-21.04,31.84-42.08,47.76-63.11
		c3.36-4.44,6.62-8.75,10.01-13.23c1.7-2.26,3.41-4.51,5.12-6.77c5.39-5.01,12.1-9.2,19.76-12.12c3.63-1.39,7.48-2.49,11.49-3.27
		c4.29-0.83,8.73-1.36,13.09-1.91c2.33-0.3,4.76-0.6,7.29-0.91c34.18-4.19,85.84-9.76,140.4-14.85c4.99-0.46,9.78-0.85,14.36-1.06
		c20.91-0.95,39.26,5.14,51.9,16.98c23.04,21.57,23.62,52.62,6.1,78.19c-2.21,3.23-4.67,6.57-7.32,10.07
		c-29.16,38.54-58.32,77.08-87.49,115.62c-4.51,5.96-9.02,11.93-13.54,17.89c-2.66,3.52-7.51,9.16-9.72,13
		c-0.89,1.54-1.46,3.31-1.61,5.21c-0.15,1.99,0.18,3.9,0.9,5.62c1.36,3.28,4.12,5.89,7.59,7.06c4.05,1.36,8.96,0.08,13.13-0.45
		c59.28-7.4,117.63-13.31,174.8-17.77c2.07-0.16,4.14-0.33,6.21-0.48c7.22-0.55,15.34-0.55,21.76,1.7c7.29,2.55,12.41,8,11.61,18.85
		c-0.59,8.03-8.11,15.57-12.78,21.75c-1.33,1.76-2.66,3.52-3.99,5.27c-3.16,4.18-5.89,7.69-8.73,10.71
		c-5.24,5.56-10.9,9.45-20.51,12.78c-2.55,0.88-5.69,1.59-9.13,2.15c-10.14,1.67-22.91,2.17-31.09,2.71
		c-70.32,4.7-142.26,11.48-215.3,20.45c-4,0.49-8.01,0.99-12.02,1.5c-12.28,1.54-22.14,4.06-34.26,0.01
		c-1.46-0.49-2.89-1.06-4.28-1.7c-15.31-7.02-25.67-22.57-25-40.23c0.28-7.52,2.53-14.51,6.24-20.52
		c44.11-58.29,80.18-105.96,124.29-164.25c3-3.95,5.99-7.91,8.98-11.87c1.45-1.92,3.43-4.77,4.83-7.58c3.64-7.26,0.85-16.39-7.48-18
		c-3.41-0.66-7.13,0.26-11.25,0.71L1071.17,488.84z"/>
	<path class="st0" d="M1594.5,523.25l119.7-158.19c1.58-2.08,4.77-6.09,7.79-10.31c6.87-9.6,11.59-18.75,2.71-29.3
		c-6.66-7.9-22.15-8.24-31.95-9.01c-4.1-0.32-8.23-0.63-12.35-0.92c-16.87-1.21-24.64-1.63-40.53,7.84
		c-12.02,7.16-19.69,20.38-27.96,31.31l-206.2,272.5c-5.68,7.5-12.05,14.78-15.77,23.47c-2.4,5.6-3.83,11.72-4.07,18.17
		c-0.79,21.03,11.3,39.61,29.32,48.37c2.33,1.13,4.77,2.1,7.27,2.89c12.33,3.85,29.19,2.2,42.26,2.17
		c97.46-0.27,190.23,3.77,276.73,11.8c8.82,0.82,15.14,1.74,24.09,0.23c9.25-1.56,17.61-5,24.36-9.8
		c7.48-5.34,12.08-12.84,17.59-20.11c2.99-3.95,14.04-17.83,15.06-22.55c0.92-4.27,0.39-8.51-1.27-12.24
		c-1.4-3.15-3.61-5.94-6.43-8.03c-5.72-4.27-22.17-5.61-29.2-6.27c-4.66-0.44-9.35-0.86-14.05-1.28
		c-71.68-6.28-148.2-9.5-228.53-9.52c-4.46,0-18.97,1.22-23.88-1.89c-1.75-1.1-3.19-2.62-4.19-4.4c-1.16-2.05-1.75-4.46-1.56-6.98
		c0.42-5.49,7.22-12.51,10.29-16.45l48.86-62.86C1579.98,542.33,1587.22,532.87,1594.5,523.25L1594.5,523.25z"/>
	<path class="st0" d="M1442.79,845.98c61.24,4.43,119.65,10.8,174.74,18.98c3.76,0.56,7.51,1.13,11.24,1.7
		c11.7,1.81,21.47,3.41,33.52,1.71c14.73-2.09,27.34-8.92,35.07-18.48c4.4-5.81,8.8-11.63,13.2-17.44
		c3.98-5.27,11.9-15.55,13.03-21.24c1.07-5.35,0.25-10.66-1.98-15.12c-1.17-2.36-2.75-4.49-4.64-6.25
		c-2.67-2.49-6.5-3.95-10.68-4.85c-10.43-2.23-27-2.42-38.23-3.2c-69.89-4.91-143.43-7.33-219.83-7.11
		c-4.05,0.01-8.13,0.03-12.2,0.06c-4.75,0.03-9.53,0.08-14.31,0.12c-18.73,0.2-37.88,2.64-51.09,17.54
		c-1.65,1.86-3.23,3.95-5.22,6.58c-2.4,3.18-4.81,6.35-7.21,9.53c-3.85,5.09-8.92,10.01-9.17,16.73c-0.07,1.92,0.21,3.79,0.8,5.5
		c0.94,2.79,2.66,5.24,4.92,7.09c3.51,2.87,11.34,4,19.16,4.47C1396.84,843.67,1419.67,844.31,1442.79,845.98L1442.79,845.98z"/>
	<path class="st0" d="M1149.83,839.4c26.69-0.61,53.06-0.92,79.1-0.9c6.84,0.01,16.88,0.29,23.57-0.3
		c16.38-1.46,30.53-8.7,38.91-19.11l10.64-14.06c1.98-2.62,4.54-5.36,5.49-8.52c0.28-0.93,0.46-1.92,0.55-2.93
		c0.29-3.42-0.62-6.68-2.34-9.29c-1.29-1.94-3.03-3.54-5.08-4.56c-3.76-1.89-10.26-0.99-14.37-0.79c-2.43,0.12-4.87,0.24-7.3,0.37
		c-33.1,1.7-66.61,3.87-100.45,6.51c-5.26,0.41-10.51,0.53-15.62,1.95c-4.78,1.34-9.04,3.53-12.48,6.31
		c-3.34,2.69-8.18,9.67-10.96,13.34l-8.22,10.86c-0.99,1.86-1.59,3.96-1.67,6.2c-0.23,6,3.29,11.29,8.49,13.67
		c3.92,1.81,7.61,1.35,11.75,1.26L1149.83,839.4z"/>
	<path class="st0" d="M514.55,907.86c71.8-13.77,146-25.83,222.11-35.92c100.77-13.36,199.59-22.57,295.21-27.89
		c5.43-0.3,10.74-0.58,16.31-0.87c6.35-1.03,12.08-3.38,16.67-6.68c6.53-4.67,12.62-14.12,17.38-20.41
		c1.58-2.09,3.58-4.22,4.31-6.77c0.2-0.7,0.34-1.42,0.4-2.18c0.41-4.78-2.17-9.17-6.07-10.98c-3.03-1.4-8.17-0.62-11.44-0.28
		c-33.88,3.59-68.02,7.65-102.39,12.21c-163.23,21.64-317.67,52.3-458.55,89.57C348.91,939.88,355.55,938.31,514.55,907.86
		L514.55,907.86z"/>
	<path class="st1" d="M466.06,816.29l279.17-369.77c2.99-3.96,8.13-9.14,8.53-14.36c0.19-2.57-0.42-5.03-1.64-7.11
		c-1.29-2.22-3.27-4.03-5.68-5.11c-1.31-0.59-2.77-0.98-4.3-1.1c-3.01-0.23-8.9,1.29-11.72,1.86
		c-33.46,6.83-66.36,14.03-98.67,21.58c-1.11,0.15-2.25,0.2-3.41,0.15c-8.89-0.33-16.24-6.25-18.68-14.2
		c-0.64-2.07-0.94-4.27-0.86-6.55c0.31-8.44,7.27-15.32,12.09-21.69l25.68-33.85c4.85-6.39,8.77-11.58,13.74-18.14l2.72-3.59
		c5.2-5.07,11.7-9.36,19.16-12.45c7.41-3.07,18.83-5.07,27.02-6.82c37.31-7.98,73.96-15.19,111.21-21.81
		c33.6-5.97,79.18-13.32,93.13,28.42c5.97,17.87,2.72,30.88-4.34,42.94c-5.43,9.27-13.13,17.98-20.63,27.89L606.75,775.68
		l-13.7,18.1c-2.94,3.73-6.29,8.32-10.08,13.4c-5.66,7.57-14.26,18.33-21.52,23.99c-6.73,5.27-14.68,8.33-30.85,12.8
		c-13.68,3.79-27.31,7.44-40.75,11.26c-4.51,1.28-11.26,3.79-16.3,3.6c-11.2-0.42-19.97-9.71-19.54-20.75
		c0.21-5.34,3.1-9.88,6.34-14.21C462.24,821.33,464.16,818.81,466.06,816.29L466.06,816.29z"/>
</g>
</svg>
