<?xml version="1.0" encoding="UTF-8"?>
<svg id="Layer_1" data-name="Layer 1" xmlns="http://www.w3.org/2000/svg" viewBox="0 0 309.82 312.12">
  <defs>
    <style>
      .cls-1 {
        fill: #fe7743;
        stroke-width: 0px;
      }
    </style>
  </defs>
  <path class="cls-1" d="m60.81,255.35c0,1.3-.1,1.08.86,2.04,1.69,1.9,3.33,3.43,4.91,5.01,15.96,17.03,30.71,32.55,47.12,49.69-28.28.07-54.54-.08-82.82-.02-10.11.02-20.22,0-30.87,0,0-51.65,0-102.85.23-154.64,0-1.61,0-1.58,0-2.33.19-1,.67-1.3,1.06-1.69,13.38-13.43,26.81-26.81,40.21-40.22,8.42-8.43,16.81-16.9,26.67-26.82,60.15,60.23,119.91,120.08,179.5,179.75,0-.08.14-.72.14-1.35.02-27.16.07-54.31-.09-81.47-.01-1.83-1.31-4.02-2.67-5.41-10.37-10.6-20.9-21.04-31.38-31.52-32.98-32.99-65.96-65.98-98.96-98.96-1.75-1.75-4.11-3.35-1.45-6,7.57-7.53,15.3-14.9,22.8-22.49,6.04-6.11,11.83-12.46,17.73-18.7.36-.36.31-.34.9.25,6.14,5.98,10.74,10.08,13.93,13.22,4.39,4.39,17.4,17.23,26.04,25.87,9.88,9.86,19.76,19.73,29.61,29.61,8.64,8.66,17.23,17.38,25.88,26.03,9.87,9.87,19.83,19.64,29.66,29.55,9.99,10.07,19.86,20.25,29.78,30.38.07,10.98.19,21.96.2,32.94.02,39.27,0,78.55,0,117.82v6.11c-35.25,0-70.06.08-105.62.08-47.66-47.44-94.69-94.95-142.62-142.91"/>
</svg>