<svg xmlns="http://www.w3.org/2000/svg" width="83.895" height="22.147" viewBox="0 0 83.895 22.147"><g transform="translate(-571 -291)"><path d="M8.293-12.827a4.61,4.61,0,0,1,3.864,1.465A7.235,7.235,0,0,1,13.3-6.888a7.826,7.826,0,0,1-1.1,4.525A4.168,4.168,0,0,1,8.527-.794q-.545,0-1.063-.052T6.193-1.027l-.519-.1a5.159,5.159,0,0,0-.545-.078V3.952H.98V-12.827ZM7.852-4.477a1.1,1.1,0,0,0,1.076-.6,4.154,4.154,0,0,0,.3-1.789,3.694,3.694,0,0,0-.311-1.7,1.083,1.083,0,0,0-1.037-.584H5.129v4.668Zm8.791,8.584a3.121,3.121,0,0,1-2.269-.843A3.016,3.016,0,0,1,13.506,1V-.2a2.874,2.874,0,0,1,1.037-2.321,4.756,4.756,0,0,1,3.112-.869h2.593v-.467a1.153,1.153,0,0,0-.376-1.011,2.549,2.549,0,0,0-1.31-.285,2.476,2.476,0,0,0-.35-.026H14.284v-2.36A14.469,14.469,0,0,1,16.6-8.146a15.757,15.757,0,0,1,2.762-.22,6.021,6.021,0,0,1,3.8.96,3.956,3.956,0,0,1,1.18,3.242V3.952H21.13l-.648-1.245a3.611,3.611,0,0,1-1.167.778,6,6,0,0,1-1.258.454A5.911,5.911,0,0,1,16.644,4.107ZM18.8,1.255a.777.777,0,0,0,.311-.013q.182-.039.363-.091a2.4,2.4,0,0,0,.285-.078l.311-.1.182-.078v-2.36l-1.219.156q-.207.026-.363.052a1.515,1.515,0,0,0-.791.4,1.022,1.022,0,0,0-.246.713V.3a.849.849,0,0,0,.311.726A1.4,1.4,0,0,0,18.8,1.255Zm10.01-9.466,1.5,7.884a1.4,1.4,0,0,0,.428.752,1.019,1.019,0,0,0,.635.207l1.712-8.843h4.2L34.045,7.064,32.93,9.32H29.455l1.219-5.368A4.244,4.244,0,0,1,27.9,3.044,4.463,4.463,0,0,1,26.5.5L24.528-8.211Zm8.325,6.12a11.442,11.442,0,0,1,.493-3.8A3.432,3.432,0,0,1,39.3-7.835a7.539,7.539,0,0,1,3.384-.609,9.663,9.663,0,0,1,3.034.376A2.7,2.7,0,0,1,47.3-6.759,5.7,5.7,0,0,1,47.79-4.14a3.085,3.085,0,0,1-1.05,2.632,5.156,5.156,0,0,1-3.125.791h-2.36A1.978,1.978,0,0,0,41.748.619a2.408,2.408,0,0,0,1.53.4,1.97,1.97,0,0,0,.324.026h3.721V3.433a20.1,20.1,0,0,1-2.075.467,14.429,14.429,0,0,1-2.412.182,8.026,8.026,0,0,1-3.449-.6A3.455,3.455,0,0,1,37.65,1.566,10.323,10.323,0,0,1,37.131-2.091ZM43.2-3.128a1.114,1.114,0,0,0,.739-.195.885.885,0,0,0,.22-.687,1.61,1.61,0,0,0-.324-1.167,1.525,1.525,0,0,0-1.076-.311,1.668,1.668,0,0,0-.973.246,1.26,1.26,0,0,0-.48.752,5.7,5.7,0,0,0-.13,1.362Z" transform="translate(570.02 303.827)" fill="#373435"/><path d="M53.914-12.827,56.688-5.1l2.775-7.728h4.1L58.659-.872V3.952H54.536V-.872l-4.9-11.955ZM61.379-2.091a11.443,11.443,0,0,1,.493-3.8,3.432,3.432,0,0,1,1.673-1.945,7.539,7.539,0,0,1,3.384-.609,9.663,9.663,0,0,1,3.034.376,2.7,2.7,0,0,1,1.582,1.31,5.7,5.7,0,0,1,.493,2.619,3.085,3.085,0,0,1-1.05,2.632,5.156,5.156,0,0,1-3.125.791H65.5A1.978,1.978,0,0,0,66,.619a2.408,2.408,0,0,0,1.53.4,1.97,1.97,0,0,0,.324.026h3.721V3.433A20.1,20.1,0,0,1,69.5,3.9a14.429,14.429,0,0,1-2.412.182,8.026,8.026,0,0,1-3.449-.6A3.455,3.455,0,0,1,61.9,1.566,10.323,10.323,0,0,1,61.379-2.091Zm6.068-1.037a1.114,1.114,0,0,0,.739-.195.885.885,0,0,0,.22-.687,1.61,1.61,0,0,0-.324-1.167,1.525,1.525,0,0,0-1.076-.311,1.668,1.668,0,0,0-.973.246,1.26,1.26,0,0,0-.48.752,5.7,5.7,0,0,0-.13,1.362Zm9.44-10.192V-4.3h1.271l2.178-3.916h4.149L81.193-2.454l3.683,6.406H80.726L78.132-.613H76.888V3.952h-4.1V-13.32Z" transform="translate(570.02 304.32)" fill="#ed3237"/></g></svg>