<svg xmlns="http://www.w3.org/2000/svg" width="84.177" height="22.652" viewBox="0 0 84.177 22.652"><g transform="translate(-455.718 -320.341)"><path d="M-19.14-5.18l.42,2.94,1,1.14A3.236,3.236,0,0,0-15.3,0h2.92l1.1-1.34A3.985,3.985,0,0,0-8.16,0H-7.1c.66,0,1.2-1.04,1.2-2.32s-.54-2.32-1.2-2.32h-.72A1,1,0,0,1-8.84-5.66v-8.16l-3.58.9v1.16l-2.64.62A5.2,5.2,0,0,0-19.14-5.18Zm3.56-.84a1.16,1.16,0,0,1,.9-1.36l2.26-.54v3.48h-2.9ZM-7.1,0H18.02c.66,0,1.2-1.04,1.2-2.32s-.54-2.32-1.2-2.32H-7.1c-.66,0-1.2,1.04-1.2,2.32S-7.76,0-7.1,0ZM18,0h1.7c3.54,0,5.9-2.8,5-6.84l-1.2-5.32L20-10.44l1.3,5.8H18c-.66,0-1.2,1.04-1.2,2.32S17.34,0,18,0Zm-.38,4.78H24.1V1.76H17.62ZM37.78-6.84l-1.2-5.32-3.5,1.72,1.3,5.8H31.12A1,1,0,0,1,30.1-5.66V-15.672l-3.6.98L26.56-4.48C26.58-1.8,28.3,0,30.78,0h2C36.32,0,38.7-2.8,37.78-6.84ZM28.52,4.76h1.76L30.2,6.98h3.12l-.08-2.22H35V1.74H28.52Z" transform="translate(501.917 336.013)" fill="#c7c8ca"/><path d="M6.46,0h5.42A2.4,2.4,0,0,0,13.9-1.08l.48-.7A4.117,4.117,0,0,0,17.76,0h.2c.62,0,1.2-1.04,1.2-2.32s-.54-2.32-1.2-2.32h-.52a.933.933,0,0,1-.96-.8L16.22-7a3.288,3.288,0,0,0-3.34-2.8H10.26l2.64-2.36-1.8-3.5L5.3-10,7.12-6h5.06a.667.667,0,0,1,.66.56l.08.42.06.38H6.32A2.111,2.111,0,0,1,4.18-7.3L4.76-10H1.7L.98-6.76C.12-2.86,2.44,0,6.46,0ZM17.94,0h1.7c3.54,0,5.9-2.8,5-6.84l-1.2-5.32-3.5,1.72,1.3,5.8h-3.3c-.66,0-1.2,1.04-1.2,2.32S17.28,0,17.94,0Zm-.38,4.78h6.48V1.76H17.56Z" transform="translate(454.917 336.013)" fill="#ed3237"/></g></svg>